<svg width="100" height="59" viewBox="0 0 100 59" fill="none" xmlns="http://www.w3.org/2000/svg">
<path d="M18.4375 18.5186L8.52073 8.62695C3.06479 14.0868 0 21.4896 0 29.2082C0 36.9268 3.06479 44.3296 8.52073 49.7895L18.4375 39.8686C15.6215 37.0302 14.0413 33.194 14.0413 29.1957C14.0413 25.1974 15.6215 21.357 18.4375 18.5186Z" fill="#E8710A"/>
<path d="M49.7749 8.62265C44.319 14.0826 41.2542 21.4854 41.2542 29.204C41.2542 36.9226 44.319 44.3254 49.7749 49.7852L59.8792 39.8644C57.5646 36.9557 56.3994 33.298 56.6053 29.5864C56.8111 25.8749 58.3734 22.3684 60.9955 19.7335C63.6175 17.0986 67.1165 15.519 70.827 15.295C74.5374 15.071 78.2009 16.2182 81.1208 18.5186L91.0416 8.59765C88.3469 5.88445 85.1441 3.72855 81.616 2.25335C78.0879 0.778254 74.3037 0.012553 70.4797 0.000153049C66.6557 -0.012247 62.8665 0.728954 59.329 2.18125C55.7914 3.63355 52.5747 5.76855 49.8624 8.46435L49.7791 8.54765V8.62265H49.7749ZM47.0249 52.1686L39.6707 39.8602C36.8326 42.6749 32.9972 44.2542 29 44.2542C25.0028 44.2542 21.1674 42.6749 18.3292 39.8602L8.5083 49.7936C13.4605 54.744 20.0306 57.7444 27.0149 58.2448C33.9993 58.7453 40.93 56.7123 46.5374 52.5186L47.0167 52.1686M8.5083 8.61855L18.4292 18.5186C21.2631 15.7342 25.077 14.174 29.0499 14.174C33.0229 14.174 36.8368 15.7342 39.6707 18.5186L46.8666 6.18935L46.4375 5.86015C40.8344 1.69715 33.9223 -0.314546 26.9604 0.191754C19.9984 0.698054 13.4501 3.68865 8.5083 8.61855Z" fill="#F9AB00"/>
<path d="M91.0379 8.62305L81.1129 18.5188C83.4275 21.4275 84.5926 25.0853 84.3868 28.7968C84.181 32.5083 82.6185 36.0149 79.9965 38.6498C77.3744 41.2847 73.8756 42.8643 70.1651 43.0882C66.4546 43.3122 62.7912 42.165 59.8712 39.8646L49.7671 49.7938C55.2635 55.0717 62.61 57.9844 70.2298 57.9069C77.8496 57.8294 85.1353 54.7678 90.5233 49.3792C95.9113 43.9907 98.9721 36.7047 99.0489 29.0849C99.1256 21.4651 96.2121 14.1189 90.9337 8.62305H91.0379Z" fill="#E8710A"/>
</svg>
