<svg width="67" height="100" viewBox="0 0 67 100" fill="none" xmlns="http://www.w3.org/2000/svg">
<path d="M16.6667 100C25.8667 100 33.3334 92.5337 33.3334 83.3337V66.667H16.6667C7.4667 66.667 0 74.1337 0 83.3337C0 92.5337 7.4667 100 16.6667 100Z" fill="#0ACF83"/>
<path d="M0 49.9996C0 40.7996 7.4667 33.333 16.6667 33.333H33.3334V66.6662H16.6667C7.4667 66.6662 0 59.1996 0 49.9996Z" fill="#A259FF"/>
<path d="M0 16.6667C0 7.46666 7.4667 0 16.6667 0H33.3334V33.3333H16.6667C7.4667 33.3333 0 25.8667 0 16.6667Z" fill="#F24E1E"/>
<path d="M33.3335 0H50.0002C59.2002 0 66.6669 7.46666 66.6669 16.6667C66.6669 25.8667 59.2002 33.3333 50.0002 33.3333H33.3335V0Z" fill="#FF7262"/>
<path d="M66.6669 49.9996C66.6669 59.1996 59.2002 66.6662 50.0002 66.6662C40.8002 66.6662 33.3335 59.1996 33.3335 49.9996C33.3335 40.7996 40.8002 33.333 50.0002 33.333C59.2002 33.333 66.6669 40.7996 66.6669 49.9996Z" fill="#1ABCFE"/>
</svg>
