<svg width="100" height="100" viewBox="0 0 100 100" fill="none" xmlns="http://www.w3.org/2000/svg">
<path d="M98.1141 45.5444L54.4531 1.88584C51.9402 -0.628613 47.8621 -0.628613 45.3461 1.88584L36.2797 10.9522L47.7809 22.4534C50.4535 21.5503 53.5184 22.1562 55.6488 24.2866C57.7894 26.4308 58.391 29.5218 57.466 32.203L68.55 43.2874C71.2316 42.3636 74.3258 42.9612 76.4676 45.1065C79.4609 48.0987 79.4609 52.9483 76.4676 55.9425C73.4734 58.937 68.6238 58.937 65.6281 55.9425C63.3766 53.6886 62.8203 50.3819 63.9602 47.6081L53.6234 37.2714L53.6223 64.4733C54.3716 64.8438 55.056 65.3333 55.6488 65.9226C58.6422 68.9147 58.6422 73.7647 55.6488 76.7612C52.6547 79.7542 47.8027 79.7542 44.8129 76.7612C41.8195 73.7647 41.8195 68.9151 44.8129 65.923C45.5302 65.2053 46.3827 64.6369 47.3211 64.2507V36.7952C46.3814 36.4116 45.5284 35.8429 44.8129 35.1229C42.5449 32.8581 41.9996 29.5304 43.1617 26.7456L31.8242 15.4069L1.88672 45.3425C-0.628906 47.8593 -0.628906 51.9378 1.88672 54.4526L45.5484 98.112C48.0621 100.627 52.1395 100.627 54.6562 98.112L98.1137 54.6554C100.629 52.1397 100.629 48.0589 98.1141 45.5444Z" fill="#DE4C36"/>
</svg>
