<svg width="100" height="100" viewBox="0 0 100 100" fill="none" xmlns="http://www.w3.org/2000/svg">
<path d="M49.6397 0C24.2535 0 25.8385 11.009 25.8385 11.009L25.8667 22.4146H50.0924V25.8389H16.2447C16.2447 25.8389 0 23.9966 0 49.6111C0 75.2264 14.1788 74.318 14.1788 74.318H22.6406V62.4315C22.6406 62.4315 22.1844 48.2528 36.593 48.2528H60.6205C60.6205 48.2528 74.1199 48.4709 74.1199 35.206V13.2734C74.1199 13.2734 76.1702 0 49.6397 0ZM36.2817 7.67007C36.8542 7.66955 37.4211 7.78193 37.9501 8.00076C38.4791 8.2196 38.9598 8.5406 39.3646 8.9454C39.7693 9.35019 40.0903 9.83084 40.3092 10.3598C40.528 10.8888 40.6404 11.4558 40.6399 12.0282C40.6404 12.6007 40.528 13.1677 40.3092 13.6967C40.0903 14.2256 39.7693 14.7063 39.3646 15.1111C38.9598 15.5159 38.4791 15.8369 37.9501 16.0557C37.4211 16.2746 36.8542 16.3869 36.2817 16.3864C35.7092 16.3869 35.1423 16.2746 34.6133 16.0557C34.0843 15.8369 33.6037 15.5159 33.1989 15.1111C32.7941 14.7063 32.4731 14.2256 32.2542 13.6967C32.0354 13.1677 31.923 12.6007 31.9235 12.0282C31.923 11.4558 32.0354 10.8888 32.2542 10.3598C32.4731 9.83084 32.7941 9.35019 33.1989 8.9454C33.6037 8.5406 34.0843 8.2196 34.6133 8.00076C35.1423 7.78193 35.7092 7.66955 36.2817 7.67007Z" fill="url(#paint0_linear_507_292)"/>
<path d="M50.3606 99.4804C75.7469 99.4804 74.1618 88.4714 74.1618 88.4714L74.1336 77.0661H49.9075V73.6418H83.7552C83.7552 73.6418 99.9999 75.4841 99.9999 49.8688C99.9999 24.2538 85.8212 25.1622 85.8212 25.1622H77.3593V37.0484C77.3593 37.0484 77.8155 51.2271 63.4069 51.2271H39.3794C39.3794 51.2271 25.88 51.009 25.88 64.2743V86.2073C25.88 86.2073 23.8305 99.4804 50.3606 99.4804ZM63.7186 91.8111C63.1461 91.8116 62.5792 91.6992 62.0502 91.4804C61.5212 91.2615 61.0406 90.9405 60.6358 90.5357C60.231 90.1309 59.91 89.6503 59.6911 89.1213C59.4723 88.5923 59.3599 88.0254 59.3604 87.4529C59.3599 86.8804 59.4722 86.3134 59.691 85.7843C59.9098 85.2553 60.2308 84.7746 60.6356 84.3698C61.0404 83.9649 61.5211 83.6439 62.0501 83.425C62.5791 83.2062 63.1461 83.0938 63.7186 83.0943C64.2911 83.0938 64.858 83.2062 65.387 83.425C65.916 83.6438 66.3967 83.9648 66.8014 84.3696C67.2062 84.7744 67.5272 85.2551 67.7461 85.7841C67.9649 86.3131 68.0773 86.88 68.0768 87.4525C68.0773 88.025 67.9649 88.5919 67.7461 89.1209C67.5272 89.6499 67.2062 90.1305 66.8014 90.5353C66.3967 90.9401 65.916 91.2611 65.387 91.48C64.858 91.6988 64.2911 91.8116 63.7186 91.8111Z" fill="url(#paint1_linear_507_292)"/>
<defs>
<linearGradient id="paint0_linear_507_292" x1="9.60996" y1="8.94762" x2="59.1669" y2="58.0102" gradientUnits="userSpaceOnUse">
<stop stop-color="#387EB8"/>
<stop offset="1" stop-color="#366994"/>
</linearGradient>
<linearGradient id="paint1_linear_507_292" x1="40.028" y1="40.453" x2="93.2465" y2="90.7621" gradientUnits="userSpaceOnUse">
<stop stop-color="#FFE052"/>
<stop offset="1" stop-color="#FFC331"/>
</linearGradient>
</defs>
</svg>
