<svg width="100" height="23" viewBox="0 0 100 23" fill="none" xmlns="http://www.w3.org/2000/svg">
<path d="M31.0153 22.315V0.436507H32.2021V3.87801C32.3422 3.72541 32.4716 3.56331 32.5894 3.39291C33.5806 1.33651 35.6711 0.0387065 37.9534 0.0644065C40.6591 -0.0162935 42.8579 0.985306 44.15 3.39291C44.9723 4.88861 45.4247 6.55931 45.4696 8.26561C45.5146 9.97181 45.1506 11.664 44.4083 13.2009C43.2044 15.8991 40.231 17.2406 37.0477 16.7478C36.057 16.6636 35.1032 16.3326 34.2734 15.785C33.4435 15.2374 32.7641 14.4907 32.297 13.613V22.3141L31.0153 22.315ZM32.2021 8.17591L32.4679 10.7449C32.9369 13.669 34.6657 15.3969 37.38 15.7215C38.6546 15.9311 39.9625 15.6921 41.0807 15.0454C42.1989 14.3986 43.0581 13.384 43.512 12.1747C44.5677 9.65881 44.4899 6.81071 43.3032 4.35371C42.8187 3.26951 41.9946 2.37261 40.9553 1.79831C39.916 1.22401 38.718 1.00361 37.5423 1.17041C36.4388 1.25071 35.3877 1.67261 34.5349 2.37771C33.6822 3.08271 33.0703 4.03581 32.784 5.10461C32.5313 6.11601 32.337 7.14221 32.2021 8.17591ZM69.7007 11.1493C69.5207 12.6898 68.7874 14.1124 67.6371 15.1527C66.4868 16.193 64.9979 16.7801 63.4471 16.8048C58.4705 17.0554 56.135 13.7506 55.7638 9.93701C55.5057 7.86601 55.8419 5.76421 56.7331 3.87711C57.3534 2.58251 58.3698 1.51901 59.635 0.840709C60.9001 0.162309 62.3484 -0.0955947 63.7699 0.104205C65.1214 0.219105 66.4024 0.756106 67.4319 1.63911C68.4613 2.52221 69.1869 3.70671 69.5061 5.02491C69.7589 6.22571 69.945 7.43961 70.0634 8.66101H56.9932C56.7512 12.1186 58.6091 14.8984 61.2427 15.5687C64.5228 16.3757 67.3263 14.9544 68.344 11.8357C68.57 11.0354 68.982 10.9224 69.7093 11.1493H69.7007ZM56.9838 7.55401H68.6744C68.6013 3.87041 66.3076 1.19321 63.1965 1.16281C59.6838 1.10581 57.1366 3.67581 56.9838 7.55401ZM72.1169 11.23H73.2628C73.3049 12.0742 73.579 12.8905 74.0551 13.589C74.5311 14.2874 75.1906 14.8411 75.9609 15.1889C76.9282 15.6243 77.9812 15.8358 79.0416 15.8079C80.102 15.7799 81.1424 15.5132 82.0854 15.0276C82.5994 14.7961 83.0301 14.4124 83.319 13.9284C83.608 13.4443 83.7414 12.8832 83.7012 12.3209C83.7308 11.7785 83.5828 11.2414 83.2795 10.7908C82.9763 10.3402 82.5344 10.0008 82.0208 9.82401C80.7601 9.35501 79.4195 9.09681 78.135 8.68471C76.7984 8.30421 75.4914 7.82631 74.2245 7.25501C72.1549 6.24481 72.0267 2.31061 74.3698 1.06501C75.5695 0.388005 76.9197 0.0222063 78.2971 0.00100627C79.6745 -0.0201937 81.0353 0.303807 82.2553 0.943507C83.7686 1.77891 84.6051 3.46601 84.3563 5.17771H83.3737C83.3737 5.13031 83.2845 5.08851 83.2845 5.04011C83.1629 1.90711 80.5294 0.927308 77.7021 1.20271C76.8477 1.29761 76.0378 1.55581 75.2783 1.93751C74.8218 2.14601 74.4413 2.49121 74.1896 2.92551C73.9378 3.35971 73.8273 3.86141 73.8732 4.36131C73.8742 4.86141 74.0301 5.34911 74.3194 5.75711C74.6088 6.16511 75.0174 6.47341 75.4891 6.63981C76.7233 7.09261 78.0334 7.38311 79.3104 7.73821L82.3958 8.54521C83.0971 8.77541 83.7121 9.21301 84.1592 9.80021C84.6064 10.3874 84.8649 11.0966 84.9003 11.8338C85.1472 13.4905 84.3022 15.1187 82.8079 15.8734C80.1097 17.4001 75.6657 16.9966 73.6862 15.0665C72.6732 14.0478 72.1084 12.6645 72.1197 11.2291L72.1169 11.23ZM99.4401 5.17871H98.3654C98.3654 5.03341 98.3084 4.89391 98.2923 4.78281C98.2751 3.97721 97.9815 3.20201 97.4607 2.58721C96.9399 1.97241 96.2236 1.55531 95.4318 1.40581C93.9382 0.977407 92.3449 1.05421 90.8995 1.62421C90.3279 1.78781 89.8246 2.13201 89.4649 2.60531C89.1052 3.07861 88.9084 3.65571 88.9039 4.25021C88.8834 4.83391 89.0652 5.40681 89.4184 5.87201C89.7716 6.33711 90.2747 6.66601 90.8425 6.80311L95.7546 8.06381C96.2858 8.19121 96.8089 8.35041 97.3211 8.54041C98.8876 9.11011 99.9509 10.5645 99.9983 12.2269C100.022 13.0406 99.7986 13.8423 99.3581 14.5269C98.9175 15.2114 98.2803 15.7467 97.5299 16.0624C96.3898 16.5803 95.1541 16.8543 93.902 16.8669C92.6499 16.8794 91.4089 16.6303 90.2586 16.1355C89.3127 15.7276 88.5144 15.0396 87.9712 14.1643C87.428 13.289 87.1661 12.2682 87.2206 11.2395H88.2706C88.6656 13.143 89.9729 14.7285 91.7662 15.4785C93.5596 16.2285 95.6074 16.0443 97.2385 14.9886C97.7278 14.7341 98.134 14.3448 98.409 13.8666C98.6839 13.3884 98.816 12.8414 98.7898 12.2905C98.8141 11.7478 98.6608 11.212 98.3531 10.7643C98.0454 10.3166 97.6001 9.98151 97.0847 9.80981C95.8239 9.34081 94.4834 9.09111 93.1989 8.67051C91.8547 8.29581 90.5398 7.82331 89.2646 7.25691C87.2443 6.26291 87.0829 2.36091 89.3861 1.11631C90.6007 0.410905 91.9772 0.031907 93.3817 0.016307C94.7862 0.000607021 96.1708 0.348807 97.4008 1.02701C98.1043 1.44691 98.6706 2.06231 99.0307 2.79821C99.3907 3.53411 99.529 4.35891 99.4287 5.17201L99.4401 5.17871ZM29.0625 16.4098C28.6394 16.5698 28.1725 16.5694 27.7497 16.4087C27.327 16.2479 26.9777 15.938 26.7678 15.5374L22.5905 9.76041L21.9848 8.95341L17.1373 15.5459C16.9397 15.9293 16.6093 16.2277 16.2078 16.3853C15.8063 16.5428 15.3612 16.5489 14.9556 16.4023L21.2006 8.02401L15.3904 0.453609C16.2525 0.142209 17.2132 0.480208 17.6927 1.26061L22.0218 7.10881L26.3767 1.28341C26.5757 0.906508 26.9063 0.616006 27.3056 0.467006C27.7049 0.318106 28.145 0.321106 28.5422 0.475406L26.2874 3.46691L23.2333 7.44201C23.1485 7.51771 23.0807 7.61041 23.0342 7.71421C22.9878 7.81791 22.9638 7.93031 22.9638 8.04391C22.9638 8.15751 22.9878 8.26991 23.0342 8.37361C23.0807 8.47741 23.1485 8.57011 23.2333 8.64581L29.0501 16.4098H29.0625ZM55.5787 0.372909V1.51221C54.7615 1.45861 53.9422 1.57691 53.1736 1.85951C52.405 2.14221 51.7042 2.58281 51.1165 3.15301C50.5287 3.72331 50.067 4.41041 49.7613 5.17011C49.4555 5.92981 49.3124 6.74511 49.3412 7.56351V16.4507H48.1858V0.444106H49.3251V3.72421C50.7226 1.33181 52.8796 0.444108 55.5863 0.379508L55.5787 0.372909ZM0.00189874 7.91951L0.510767 5.40651C1.90826 0.437509 7.60454 -1.63029 11.5236 1.44761C13.8182 3.24951 14.3907 5.80241 14.2787 8.67901H1.35097C1.14211 13.8171 4.84944 16.9197 9.5916 15.3361C11.1543 14.7665 12.3306 13.4677 12.7179 11.8538C12.9685 11.0468 13.3825 10.9082 14.1401 11.1417C14.0137 12.1254 13.666 13.0676 13.123 13.8976C12.58 14.7275 11.856 15.4235 11.0052 15.9333C9.59972 16.7019 7.98716 17.0065 6.39813 16.8034C4.80909 16.6003 3.32496 15.9 2.15794 14.8025C1.0035 13.5047 0.30665 11.8642 0.170889 10.1316C0.170889 9.84681 0.0759505 9.58101 0.00949379 9.32461C0.0031646 8.84551 0 8.3771 0 7.91951H0.00189874ZM1.36711 7.57211H13.0578C12.9847 3.84761 10.634 1.20551 7.49916 1.18081C4.00924 1.13341 1.51236 3.71761 1.35856 7.55591L1.36711 7.57211Z" fill="white"/>
</svg>
