<svg width="100" height="100" viewBox="0 0 100 100" fill="none" xmlns="http://www.w3.org/2000/svg">
<path d="M50 100C77.6142 100 100 77.6148 100 50.0005C100 22.3863 77.6142 0.000488281 50 0.000488281C22.3858 0.000488281 0 22.3863 0 50.0005C0 77.6148 22.3858 100 50 100Z" fill="#7D2AE7"/>
<path d="M50 100C77.6142 100 100 77.6148 100 50.0005C100 22.3863 77.6142 0.000488281 50 0.000488281C22.3858 0.000488281 0 22.3863 0 50.0005C0 77.6148 22.3858 100 50 100Z" fill="url(#paint0_radial_513_6)"/>
<path d="M50 100C77.6142 100 100 77.6148 100 50.0005C100 22.3863 77.6142 0.000488281 50 0.000488281C22.3858 0.000488281 0 22.3863 0 50.0005C0 77.6148 22.3858 100 50 100Z" fill="url(#paint1_radial_513_6)"/>
<path d="M50 100C77.6142 100 100 77.6148 100 50.0005C100 22.3863 77.6142 0.000488281 50 0.000488281C22.3858 0.000488281 0 22.3863 0 50.0005C0 77.6148 22.3858 100 50 100Z" fill="url(#paint2_radial_513_6)"/>
<path d="M50 100C77.6142 100 100 77.6148 100 50.0005C100 22.3863 77.6142 0.000488281 50 0.000488281C22.3858 0.000488281 0 22.3863 0 50.0005C0 77.6148 22.3858 100 50 100Z" fill="url(#paint3_radial_513_6)"/>
<path d="M71.5863 60.2574C71.1736 60.2574 70.8105 60.6058 70.4326 61.3669C66.1652 70.02 58.7947 76.1426 50.2655 76.1426C40.4034 76.1426 34.2961 67.24 34.2961 54.9411C34.2961 34.1077 45.9039 22.0623 56.0994 22.0623C60.8636 22.0623 63.7731 25.0562 63.7731 29.8207C63.7731 35.4754 60.5605 38.4693 60.5605 40.4637C60.5605 41.3589 61.1173 41.9009 62.2215 41.9009C66.6578 41.9009 71.8647 36.8033 71.8647 29.6019C71.8647 22.6193 65.7873 17.4868 55.5921 17.4868C38.7423 17.4868 23.7676 33.1081 23.7676 54.7221C23.7676 71.4526 33.3214 82.5084 48.0624 82.5084C63.7084 82.5084 72.7552 66.9416 72.7552 61.889C72.7552 60.77 72.1831 60.2574 71.5863 60.2574Z" fill="white"/>
<defs>
<radialGradient id="paint0_radial_513_6" cx="0" cy="0" r="1" gradientUnits="userSpaceOnUse" gradientTransform="translate(19.3162 88.6327) rotate(-49.416) scale(77.3416 77.3416)">
<stop stop-color="#6420FF"/>
<stop offset="1" stop-color="#6420FF" stop-opacity="0"/>
</radialGradient>
<radialGradient id="paint1_radial_513_6" cx="0" cy="0" r="1" gradientUnits="userSpaceOnUse" gradientTransform="translate(26.4735 11.3687) rotate(54.703) scale(87.2168 87.2168)">
<stop stop-color="#00C4CC"/>
<stop offset="1" stop-color="#00C4CC" stop-opacity="0"/>
</radialGradient>
<radialGradient id="paint2_radial_513_6" cx="0" cy="0" r="1" gradientUnits="userSpaceOnUse" gradientTransform="translate(19.3158 88.6321) rotate(-45.1954) scale(76.4053 35.1398)">
<stop stop-color="#6420FF"/>
<stop offset="1" stop-color="#6420FF" stop-opacity="0"/>
</radialGradient>
<radialGradient id="paint3_radial_513_6" cx="0" cy="0" r="1" gradientUnits="userSpaceOnUse" gradientTransform="translate(40.8947 13.4741) rotate(66.5198) scale(78.7295 131.889)">
<stop stop-color="#00C4CC" stop-opacity="0.725916"/>
<stop offset="0.0001" stop-color="#00C4CC"/>
<stop offset="1" stop-color="#00C4CC" stop-opacity="0"/>
</radialGradient>
</defs>
</svg>
