<svg width="100" height="100" viewBox="0 0 100 100" fill="none" xmlns="http://www.w3.org/2000/svg">
<path d="M45.4662 1.76864L1.7622 45.4367C-0.5874 47.7844 -0.5874 51.5763 1.7622 53.924L45.4662 97.5921C47.8158 99.9402 51.6108 99.9402 53.9604 97.5921L72.2849 79.2827C74.3892 77.1801 74.3892 73.7713 72.2849 71.6688C70.1807 69.5663 66.769 69.5663 64.6648 71.6688L50.7731 85.549C50.1883 86.1333 49.3008 86.1333 48.7159 85.549L13.8151 50.6769C13.2303 50.0926 13.2303 49.2057 13.8151 48.6214L48.7159 13.7493C49.3008 13.1649 50.1883 13.1649 50.7731 13.7493L64.6648 27.6295C66.769 29.732 70.1807 29.732 72.2849 27.6295C74.3892 25.527 74.3892 22.1181 72.2849 20.0156L53.9625 1.70825C51.6032 -0.588612 47.8068 -0.570018 45.4662 1.76864Z" fill="url(#paint0_linear_513_7)"/>
<path d="M45.4662 1.76864L1.7622 45.4367C-0.5874 47.7844 -0.5874 51.5763 1.7622 53.924L45.4662 97.5921C47.8158 99.9402 51.6108 99.9402 53.9604 97.5921L72.2849 79.2827C74.3892 77.1801 74.3892 73.7713 72.2849 71.6688C70.1807 69.5663 66.769 69.5663 64.6648 71.6688L50.7731 85.549C50.1883 86.1333 49.3008 86.1333 48.7159 85.549L13.8151 50.6769C13.2303 50.0926 13.2303 49.2057 13.8151 48.6214L48.7159 13.7493C50.1721 12.4939 52.548 9.95124 56.037 9.3566C58.63 8.91464 61.4648 9.88734 64.5415 12.2748C62.4845 10.2196 58.9582 6.69739 53.9625 1.70825C51.6032 -0.588612 47.8068 -0.570018 45.4662 1.76864Z" fill="url(#paint1_linear_513_7)"/>
<path d="M76.515 67.6071C78.6193 69.7096 82.0309 69.7096 84.1352 67.6071L97.6522 54.1012C100.002 51.7535 100.002 47.9616 97.6525 45.6142L84.0176 32.0389C81.9084 29.9389 78.4957 29.9419 76.3902 32.0456C74.2859 34.1481 74.2859 37.557 76.3902 39.6595L85.5992 48.861C86.1841 49.4453 86.1841 50.3322 85.5992 50.9165L76.515 59.9932C74.4108 62.0957 74.4108 65.5046 76.515 67.6071Z" fill="url(#paint2_linear_513_7)"/>
<path d="M49.9319 61.6892C56.4489 61.6892 61.732 56.4105 61.732 49.8988C61.732 43.3872 56.4489 38.1084 49.9319 38.1084C43.4149 38.1084 38.1318 43.3872 38.1318 49.8988C38.1318 56.4105 43.4149 61.6892 49.9319 61.6892Z" fill="url(#paint3_linear_513_7)"/>
<defs>
<linearGradient id="paint0_linear_513_7" x1="4587.07" y1="0.000287858" x2="8740.23" y2="2536.27" gradientUnits="userSpaceOnUse">
<stop stop-color="#4285EB"/>
<stop offset="1" stop-color="#2EC7FF"/>
</linearGradient>
<linearGradient id="paint1_linear_513_7" x1="5144.13" y1="-3.00255e-05" x2="3092.85" y2="10601.6" gradientUnits="userSpaceOnUse">
<stop stop-color="#29CDFF"/>
<stop offset="0.378601" stop-color="#148EFF"/>
<stop offset="1" stop-color="#0A60FF"/>
</linearGradient>
<linearGradient id="paint2_linear_513_7" x1="1789.38" y1="-471.877" x2="-879.649" y2="3702.26" gradientUnits="userSpaceOnUse">
<stop stop-color="#FA816E"/>
<stop offset="0.414726" stop-color="#F74A5C"/>
<stop offset="1" stop-color="#F51D2C"/>
</linearGradient>
<linearGradient id="paint3_linear_513_7" x1="1645.96" y1="-803.504" x2="757.9" y2="2748.89" gradientUnits="userSpaceOnUse">
<stop stop-color="#FA8E7D"/>
<stop offset="0.512635" stop-color="#F74A5C"/>
<stop offset="1" stop-color="#F51D2C"/>
</linearGradient>
</defs>
</svg>
