<svg width="45" height="100" viewBox="0 0 45 100" fill="none" xmlns="http://www.w3.org/2000/svg">
<path d="M22.1455 0.272461L24.8141 5.28459C25.414 6.20952 26.064 7.02821 26.8295 7.79065C29.074 10.0071 31.1661 12.3727 33.0916 14.8714C37.6131 20.8084 40.6629 27.4017 42.8409 34.5324C44.1471 38.8883 44.8564 43.3567 44.9095 47.8751C45.1282 61.3835 40.4973 72.9826 31.1605 82.6226C29.6417 84.1512 28.001 85.5537 26.2546 86.816C25.3296 86.816 24.8922 86.1067 24.511 85.4536C23.8167 84.2426 23.3547 82.9126 23.1486 81.532C22.8205 79.8978 22.6048 78.2635 22.7111 76.5761V75.8137C22.6361 75.6512 21.8205 0.656808 22.1455 0.272461Z" fill="#599636"/>
<path d="M22.1455 0.107501C22.0361 -0.111232 21.9268 0.0543803 21.8174 0.160623C21.8705 1.25429 21.4893 2.22922 20.8925 3.1604C20.2363 4.08533 19.3676 4.79466 18.4958 5.5571C13.6524 9.75054 9.84012 14.8158 6.78722 20.481C2.72502 28.1054 0.631424 36.2767 0.0377236 44.8792C-0.234076 47.9821 1.01892 58.9313 1.99702 62.0904C4.66552 70.4773 9.45892 77.5049 15.6679 83.6045C17.1927 85.0731 18.8239 86.4355 20.5113 87.7448C21.0018 87.7448 21.055 87.3073 21.1675 86.9823C21.3825 86.287 21.5465 85.5768 21.658 84.8575L22.7517 76.6893L22.1455 0.107501Z" fill="#6CAC48"/>
<path d="M24.814 90.1349C24.9234 88.885 25.5234 87.8476 26.1765 86.8133C25.5203 86.5414 25.0328 86.0009 24.6516 85.3978C24.3228 84.8268 24.0507 84.225 23.8391 83.601C23.0767 81.3137 22.9142 78.9139 22.6955 76.5766V75.1611C22.4236 75.3798 22.3673 77.2297 22.3673 77.5046C22.2083 79.975 21.8805 82.4316 21.3862 84.8572C21.2237 85.8384 21.1143 86.8164 20.5112 87.6882C20.5112 87.7976 20.5112 87.9069 20.5644 88.0694C21.5455 90.9567 21.8143 93.8971 21.9799 96.8937V97.9874C21.9799 99.2935 21.9268 99.0186 23.0111 99.456C23.4485 99.6185 23.936 99.6748 24.3735 99.9997C24.7016 99.9997 24.7547 99.7279 24.7547 99.5092L24.5922 97.7124V92.7003C24.5391 91.8254 24.7016 90.9567 24.8109 90.138L24.814 90.1349Z" fill="#C2BFBF"/>
</svg>
