<svg width="100" height="98" viewBox="0 0 100 98" fill="none" xmlns="http://www.w3.org/2000/svg">
<path d="M50.0002 0C22.3894 0 0 22.3855 0 50.0002C0 72.092 14.3266 90.834 34.1933 97.4456C36.6921 97.9083 37.6097 96.3609 37.6097 95.0402C37.6097 93.848 37.563 89.909 37.5418 85.7311C23.6313 88.7557 20.6961 79.8317 20.6961 79.8317C18.4217 74.0523 15.1446 72.5159 15.1446 72.5159C10.6083 69.4124 15.4865 69.476 15.4865 69.476C20.5075 69.8289 23.1514 74.6287 23.1514 74.6287C27.6108 82.2728 34.8482 80.0627 37.7014 78.7854C38.15 75.5534 39.4461 73.348 40.8758 72.0994C29.7703 70.8347 18.0955 66.5474 18.0955 47.3889C18.0955 41.9303 20.0487 37.4697 23.2474 33.9682C22.7282 32.7086 21.0169 27.6233 23.7317 20.7361C23.7317 20.7361 27.9304 19.3923 37.4854 25.8614C41.4735 24.7532 45.7509 24.198 50.0002 24.1791C54.2495 24.198 58.5301 24.7532 62.526 25.8614C72.0696 19.3923 76.2624 20.7361 76.2624 20.7361C78.9839 27.6233 77.2718 32.7086 76.7526 33.9682C79.9584 37.4697 81.8983 41.9299 81.8983 47.3889C81.8983 66.5929 70.2015 70.8218 59.0677 72.0594C60.861 73.6111 62.459 76.6541 62.459 81.3187C62.459 88.0086 62.401 93.3932 62.401 95.0402C62.401 96.3707 63.3009 97.9299 65.8357 97.4389C85.6915 90.8199 100 72.0845 100 50.0002C100 22.3855 77.6137 0 50.0002 0Z" fill="white"/>
<path d="M18.7264 71.2267C18.6166 71.475 18.2252 71.5495 17.8695 71.3793C17.5068 71.2161 17.3029 70.8773 17.4205 70.6279C17.5284 70.3723 17.9197 70.3009 18.2817 70.4726C18.6452 70.6354 18.8522 70.9773 18.7264 71.2267ZM21.1859 73.4212C20.9475 73.6423 20.4812 73.5396 20.1647 73.1902C19.8377 72.8416 19.7765 72.3757 20.0185 72.151C20.2643 71.9302 20.7165 72.0334 21.0443 72.3824C21.3714 72.7349 21.4353 73.1976 21.1859 73.4212ZM22.8733 76.2289C22.5666 76.4418 22.0655 76.2422 21.7561 75.7976C21.4498 75.3533 21.4498 74.8199 21.7627 74.6062C22.0733 74.3925 22.5666 74.5847 22.8803 75.0258C23.1862 75.478 23.1866 76.0109 22.8733 76.2289ZM25.7265 79.481C25.4524 79.7829 24.8689 79.7021 24.4415 79.2896C24.0046 78.8865 23.8827 78.3143 24.1575 78.012C24.4348 77.7092 25.0218 77.7943 25.4524 78.2034C25.8865 78.6057 26.0187 79.1821 25.7265 79.481ZM29.4142 80.579C29.2938 80.9703 28.7315 81.1483 28.1653 80.9821C27.5998 80.8107 27.2296 80.3519 27.3437 79.9562C27.4614 79.5621 28.026 79.3766 28.5966 79.5547C29.1613 79.7253 29.5319 80.1805 29.4142 80.579ZM33.6117 81.0444C33.6259 81.457 33.1455 81.7989 32.551 81.8064C31.953 81.8193 31.4695 81.4856 31.4632 81.0801C31.4632 80.6637 31.9326 80.3248 32.5302 80.315C33.1247 80.3033 33.6117 80.6346 33.6117 81.0444ZM37.7347 80.8864C37.8061 81.2887 37.3928 81.7021 36.8026 81.8119C36.2222 81.9177 35.685 81.6695 35.6109 81.2707C35.5387 80.8582 35.9599 80.4452 36.5391 80.3382C37.1304 80.2354 37.6594 80.4774 37.7347 80.8864Z" fill="white"/>
</svg>
