<svg width="74" height="100" viewBox="0 0 74 100" fill="none" xmlns="http://www.w3.org/2000/svg">
<path d="M23.7527 77.3362C23.7527 77.3362 19.9314 79.5583 26.4723 80.3103C34.3967 81.2142 38.4464 81.0848 47.1791 79.4318C47.1791 79.4318 49.4751 80.8714 52.6811 82.1184C33.1053 90.5082 8.37661 81.6323 23.7527 77.3362ZM21.3606 66.3877C21.3606 66.3877 17.0746 69.5604 23.6204 70.2374C32.0853 71.1106 38.7701 71.1821 50.3376 68.9547C50.3376 68.9547 51.9376 70.5767 54.4534 71.4638C30.7847 78.3849 4.4222 72.0096 21.3606 66.3877Z" fill="#5382A1"/>
<path d="M41.5268 47.8152C46.3505 53.3685 40.2596 58.3659 40.2596 58.3659C40.2596 58.3659 52.5072 52.0433 46.8824 44.1257C41.6291 36.7425 37.6002 33.0735 59.41 20.4248C59.41 20.4248 25.1759 28.9751 41.5268 47.8152Z" fill="#E76F00"/>
<path d="M67.4175 85.4335C67.4175 85.4335 70.2454 87.7634 64.303 89.5661C53.0036 92.9893 17.2732 94.0229 7.3473 89.7025C3.7794 88.1506 10.4705 85.9964 12.5752 85.5441C14.7701 85.0681 16.0247 85.157 16.0247 85.157C12.0566 82.3616 -9.62323 90.6458 5.0125 93.0179C44.9258 99.4908 77.7704 90.1035 67.4175 85.4335ZM25.5901 55.0432C25.5901 55.0432 7.4156 59.3602 19.1543 60.9275C24.1105 61.5911 33.9909 61.4411 43.1944 60.6698C50.7159 60.0357 58.2685 58.6865 58.2685 58.6865C58.2685 58.6865 55.6163 59.8223 53.6976 61.1325C35.2414 65.9865 -0.412501 63.7284 9.8518 58.7632C18.5324 54.5672 25.5901 55.0432 25.5901 55.0432ZM58.1935 73.2672C76.9554 63.5179 68.2806 54.1491 62.2258 55.4115C60.7417 55.7202 60.0801 55.9877 60.0801 55.9877C60.0801 55.9877 60.6311 55.1249 61.6833 54.7514C73.6613 50.5401 82.8735 67.1716 57.8165 73.7586C57.8165 73.7589 58.1069 73.4994 58.1935 73.2672Z" fill="#5382A1"/>
<path d="M46.8821 0.000289532C46.8821 0.000289532 57.2726 10.3946 37.0271 26.3772C20.7926 39.1985 33.3251 46.5086 37.0205 54.8609C27.544 46.3109 20.5893 38.7841 25.2552 31.7791C32.103 21.4957 51.0742 16.5105 46.8821 0.000289532Z" fill="#E76F00"/>
<path d="M27.4337 99.6852C45.4425 100.839 73.0969 99.0456 73.7519 90.5244C73.7519 90.5244 72.493 93.755 58.8686 96.3203C43.4977 99.2127 24.54 98.8751 13.2959 97.0212C13.2962 97.0212 15.5974 98.9263 27.4337 99.6852Z" fill="#5382A1"/>
</svg>
