<svg width="100" height="21" viewBox="0 0 100 21" fill="none" xmlns="http://www.w3.org/2000/svg">
<g clip-path="url(#clip0_790_6555)">
<path d="M66.4769 0.00830078H83.8952V3.22326H76.9855V20.1367H73.5304V3.22326H66.4769V0.00830078Z" fill="white"/>
<path d="M37.8305 0.00830078V3.22326H23.8686V8.39514H35.0967V11.6101H23.8686V16.9218H37.8305V20.1367H20.4137V3.22326H20.4123V0.00830078H37.8305Z" fill="white"/>
<path d="M46.5279 0.0168457H42.0066L58.201 20.1453H62.7355L54.6373 10.088L62.7226 0.0322024L58.201 0.0391897L52.3736 7.27663L46.5279 0.0168457Z" fill="white"/>
<path d="M51.1675 14.3945L48.9033 11.5793L41.9937 20.1605H46.5279L51.1675 14.3945Z" fill="white"/>
<path fill-rule="evenodd" clip-rule="evenodd" d="M20.5348 20.1368L4.31855 0H0V20.1284H3.45485V4.30244L16.1946 20.1368H20.5348Z" fill="white"/>
<path d="M84.6718 20.0139C84.4188 20.0139 84.2035 19.9262 84.0233 19.7509C83.8431 19.5756 83.754 19.3634 83.7563 19.112C83.754 18.8674 83.8431 18.6575 84.0233 18.4822C84.2035 18.3069 84.4188 18.2192 84.6718 18.2192C84.9152 18.2192 85.1282 18.3069 85.3084 18.4822C85.4911 18.6575 85.5822 18.8674 85.5848 19.112C85.5822 19.278 85.5401 19.4303 85.4558 19.5663C85.3693 19.7048 85.2594 19.8132 85.1211 19.8916C84.9853 19.9724 84.8355 20.0139 84.6718 20.0139Z" fill="white"/>
<path d="M90.5685 11.5344H92.0995V17.4327C92.0972 17.9748 91.98 18.4385 91.7508 18.8283C91.519 19.2181 91.1982 19.5157 90.7863 19.7256C90.3767 19.9332 89.8967 20.0393 89.3513 20.0393C88.8526 20.0393 88.4056 19.9493 88.0076 19.774C87.6097 19.5987 87.2937 19.3358 87.0619 18.9898C86.8277 18.6437 86.713 18.2124 86.713 17.6957H88.2465C88.2487 17.9218 88.3003 18.1178 88.3985 18.2816C88.4967 18.4454 88.6325 18.5699 88.8058 18.6576C88.9812 18.7452 89.1827 18.7891 89.4097 18.7891C89.6556 18.7891 89.8663 18.7383 90.0371 18.6345C90.2079 18.533 90.3391 18.3808 90.4305 18.1778C90.5193 17.9771 90.5663 17.728 90.5685 17.4327V11.5344Z" fill="white"/>
<path d="M98.3987 13.8411C98.3614 13.4836 98.1975 13.2045 97.9119 13.0061C97.6239 12.8054 97.2518 12.7062 96.7952 12.7062C96.4746 12.7062 96.1985 12.7547 95.969 12.8493C95.7396 12.9461 95.5617 13.0753 95.4398 13.2391C95.3183 13.4029 95.2574 13.5897 95.2525 13.7996C95.2525 13.9749 95.2947 14.1272 95.3766 14.2541C95.4586 14.3832 95.5685 14.4916 95.7114 14.5793C95.8518 14.6693 96.0086 14.7431 96.1797 14.803C96.3528 14.863 96.5261 14.9138 96.6992 14.9553L97.4975 15.1514C97.8183 15.2252 98.1297 15.3244 98.4269 15.4512C98.7241 15.5758 98.9934 15.735 99.2297 15.9264C99.4662 16.1179 99.6535 16.3485 99.7916 16.6184C99.9297 16.8883 100 17.2043 100 17.5688C100 18.0601 99.8736 18.4915 99.6183 18.8652C99.3632 19.2365 98.9957 19.5272 98.5134 19.7371C98.0335 19.9447 97.453 20.0508 96.7695 20.0508C96.1094 20.0508 95.5335 19.9494 95.049 19.7464C94.5622 19.5457 94.1827 19.2504 93.9089 18.8629C93.635 18.4753 93.4876 18.0025 93.4665 17.4465H94.9835C95.0046 17.7372 95.0982 17.9794 95.2574 18.1755C95.4188 18.3692 95.6294 18.5123 95.8871 18.6091C96.147 18.7037 96.4371 18.7521 96.7579 18.7521C97.0926 18.7521 97.3876 18.7014 97.6426 18.6022C97.8954 18.503 98.0944 18.3646 98.2373 18.1847C98.3825 18.0071 98.4551 17.7972 98.4574 17.5573C98.4551 17.3381 98.3893 17.1559 98.2629 17.0129C98.1343 16.8699 97.9563 16.7499 97.7292 16.653C97.5 16.5562 97.233 16.4685 96.9287 16.3924L95.9596 16.1479C95.2596 15.9702 94.7048 15.7004 94.2997 15.3382C93.8926 14.9761 93.6911 14.4963 93.6911 13.8942C93.6911 13.4006 93.8269 12.9669 94.101 12.5955C94.3723 12.2242 94.7447 11.9358 95.2152 11.7305C95.6881 11.5229 96.2218 11.4214 96.8162 11.4214C97.4203 11.4214 97.9492 11.5229 98.4058 11.7305C98.8622 11.9358 99.2206 12.2218 99.4802 12.5863C99.7401 12.9508 99.8759 13.3683 99.883 13.8411H98.3987Z" fill="white"/>
</g>
<defs>
<clipPath id="clip0_790_6555">
<rect width="100" height="20.3046" fill="white"/>
</clipPath>
</defs>
</svg>
