<svg width="97" height="100" viewBox="0 0 97 100" fill="none" xmlns="http://www.w3.org/2000/svg">
<g clip-path="url(#clip0_815_419)">
<path d="M6.03321 4.314L61.4865 0.227337C68.2965 -0.355996 70.0465 0.0373373 74.3265 3.144L92.0299 15.5873C94.9532 17.7273 95.9265 18.3107 95.9265 20.6407V88.884C95.9265 93.1607 94.3665 95.6907 88.9199 96.0773L24.5232 99.9673C20.4299 100.161 18.4865 99.5773 16.3432 96.854L3.30988 79.9407C0.966544 76.8273 -0.00012207 74.4973 -0.00012207 71.774V11.114C-0.00012207 7.61734 1.55988 4.70067 6.03321 4.314Z" fill="white"/>
<path fill-rule="evenodd" clip-rule="evenodd" d="M61.4899 0.227337L6.02654 4.314C1.55988 4.70067 -0.00012207 7.61734 -0.00012207 11.114V71.774C-0.00012207 74.4973 0.969878 76.8273 3.30654 79.9407L16.3432 96.854C18.4865 99.5773 20.4299 100.161 24.5199 99.9673L88.9232 96.0773C94.3699 95.6907 95.9299 93.1607 95.9299 88.884V20.6407C95.9299 18.4307 95.0532 17.794 92.4732 15.9073L92.0332 15.5873L74.3332 3.144C70.0499 0.0373373 68.2999 -0.355996 61.4865 0.227337H61.4899ZM25.9765 19.524C20.7199 19.8773 19.5232 19.9573 16.5399 17.534L8.94988 11.5073C8.17321 10.7273 8.56321 9.754 10.5065 9.56067L63.8232 5.674C68.2965 5.284 70.6332 6.84067 72.3832 8.20067L81.5299 14.8107C81.9199 15.0073 82.8899 16.1707 81.7232 16.1707L26.6565 19.4773L25.9765 19.524ZM19.8465 88.3007V30.3673C19.8465 27.8373 20.6265 26.6707 22.9599 26.474L86.1965 22.7807C88.3399 22.5873 89.3132 23.9473 89.3132 26.474V84.0207C89.3132 86.5507 88.9232 88.6907 85.4199 88.884L24.9065 92.384C21.4065 92.5773 19.8465 91.414 19.8465 88.3007ZM79.5865 33.474C79.9732 35.224 79.5865 36.974 77.8299 37.174L74.9165 37.7507V80.524C72.3832 81.884 70.0499 82.6607 68.1032 82.6607C64.9899 82.6607 64.2099 81.6873 61.8765 78.774L42.8065 48.834V77.8007L48.8399 79.164C48.8399 79.164 48.8399 82.664 43.9732 82.664L30.5499 83.4407C30.1599 82.6607 30.5499 80.7173 31.9099 80.3307L35.4132 79.3607V41.0607L30.5499 40.6673C30.1599 38.9173 31.1299 36.3907 33.8565 36.1973L48.2565 35.224L68.1032 65.5573V38.724L63.0432 38.144C62.6565 36.0007 64.2099 34.4473 66.1565 34.254L79.5865 33.474Z" fill="black"/>
</g>
<defs>
<clipPath id="clip0_815_419">
<rect width="96.6667" height="100" fill="white"/>
</clipPath>
</defs>
</svg>
