<svg width="100" height="100" viewBox="0 0 100 100" fill="none" xmlns="http://www.w3.org/2000/svg">
<g id="ps">
<g id="ps_2">
<path id="Vector" d="M17.7083 1H82.2917C92.0833 1 100 8.91667 100 18.7083V80.7917C100 90.5833 92.0833 98.5 82.2917 98.5H17.7083C7.91667 98.5 0 90.5833 0 80.7917V18.7083C0 8.91667 7.91667 1 17.7083 1Z" fill="#001E36"/>
<path id="Vector_2" d="M22.5 69.3751V26.5001C22.5 26.2084 22.625 26.0417 22.9167 26.0417C23.625 26.0417 24.2917 26.0417 25.25 26.0001C26.25 25.9584 27.2917 25.9584 28.4167 25.9167C29.5417 25.8751 30.75 25.8751 32.0417 25.8334C33.3333 25.7917 34.5833 25.7917 35.8333 25.7917C39.25 25.7917 42.0833 26.2084 44.4167 27.0834C46.5 27.7917 48.4167 28.9584 50 30.5001C51.3333 31.8334 52.375 33.4584 53.0417 35.2501C53.6667 37.0001 54 38.7917 54 40.6667C54 44.2501 53.1667 47.2084 51.5 49.5417C49.8333 51.8751 47.5 53.6251 44.7917 54.6251C41.9583 55.6667 38.8333 56.0417 35.4167 56.0417C34.4167 56.0417 33.75 56.0417 33.3333 56.0001C32.9167 55.9584 32.3333 55.9584 31.5417 55.9584V69.3334C31.5833 69.6251 31.375 69.8751 31.0833 69.9167C31.0417 69.9167 31 69.9167 30.9167 69.9167H23C22.6667 69.9167 22.5 69.7501 22.5 69.3751ZM31.5833 34.0834V48.0834C32.1667 48.1251 32.7083 48.1667 33.2083 48.1667H35.4167C37.0417 48.1667 38.6667 47.9167 40.2083 47.4167C41.5417 47.0417 42.7083 46.2501 43.625 45.2084C44.5 44.1667 44.9167 42.7501 44.9167 40.9167C44.9583 39.6251 44.625 38.3334 43.9583 37.2084C43.25 36.1251 42.25 35.2917 41.0417 34.8334C39.5 34.2084 37.8333 33.9584 36.125 34.0001C35.0417 34.0001 34.0833 34.0001 33.2917 34.0417C32.4583 34.0001 31.875 34.0417 31.5833 34.0834Z" fill="#31A8FF"/>
<path id="Vector_3" d="M80.0001 45.5417C78.7501 44.875 77.4168 44.4167 76.0001 44.125C74.4584 43.7917 72.9168 43.5833 71.3334 43.5833C70.5001 43.5417 69.6251 43.6667 68.8334 43.875C68.2918 44 67.8334 44.2917 67.5418 44.7083C67.3334 45.0417 67.2084 45.4583 67.2084 45.8333C67.2084 46.2083 67.3751 46.5833 67.6251 46.9167C68.0001 47.375 68.5001 47.75 69.0418 48.0417C70.0001 48.5417 71.0001 49 72.0001 49.4167C74.2501 50.1667 76.4168 51.2083 78.4168 52.4583C79.7918 53.3333 80.9168 54.5 81.7084 55.9167C82.3751 57.25 82.7084 58.7083 82.6668 60.2083C82.7084 62.1667 82.1251 64.125 81.0418 65.75C79.8751 67.4167 78.2501 68.7083 76.3751 69.4583C74.3334 70.3333 71.8334 70.7917 68.8334 70.7917C66.9168 70.7917 65.0418 70.625 63.1668 70.25C61.7084 70 60.2501 69.5417 58.9168 68.9167C58.6251 68.75 58.4168 68.4583 58.4584 68.125V60.875C58.4584 60.75 58.5001 60.5833 58.6251 60.5C58.7501 60.4167 58.8751 60.4583 59.0001 60.5417C60.6251 61.5 62.3334 62.1667 64.1668 62.5833C65.7501 63 67.4168 63.2083 69.0834 63.2083C70.6668 63.2083 71.7918 63 72.5418 62.625C73.2084 62.3333 73.6668 61.625 73.6668 60.875C73.6668 60.2917 73.3334 59.75 72.6668 59.2083C72.0001 58.6667 70.6251 58.0417 68.5834 57.25C66.4584 56.5 64.5001 55.5 62.6668 54.25C61.3751 53.3333 60.2918 52.125 59.5001 50.7083C58.8334 49.375 58.5001 47.9167 58.5418 46.4583C58.5418 44.6667 59.0418 42.9583 59.9584 41.4167C61.0001 39.75 62.5418 38.4167 64.3334 37.5833C66.2918 36.5833 68.7501 36.125 71.7084 36.125C73.4168 36.125 75.1668 36.25 76.8751 36.5C78.1251 36.6667 79.3334 37 80.4584 37.4583C80.6251 37.5 80.7918 37.6667 80.8751 37.8333C80.9168 38 80.9584 38.1667 80.9584 38.3333V45.125C80.9584 45.2917 80.8751 45.4583 80.7501 45.5417C80.3751 45.625 80.1668 45.625 80.0001 45.5417Z" fill="#31A8FF"/>
</g>
</g>
</svg>
