<svg width="101" height="90" viewBox="0 0 101 90" fill="none" xmlns="http://www.w3.org/2000/svg">
<path d="M50.3069 53.778C55.176 53.778 59.1231 49.8308 59.1231 44.9618C59.1231 40.0927 55.176 36.1455 50.3069 36.1455C45.4378 36.1455 41.4907 40.0927 41.4907 44.9618C41.4907 49.8308 45.4378 53.778 50.3069 53.778Z" fill="#61DAFB"/>
<path d="M50.3066 63.0235C76.4333 63.0235 97.6132 54.9366 97.6132 44.9609C97.6132 34.9853 76.4333 26.8984 50.3066 26.8984C24.1799 26.8984 3 34.9853 3 44.9609C3 54.9366 24.1799 63.0235 50.3066 63.0235Z" stroke="#61DAFB" stroke-width="5"/>
<path d="M34.6642 53.9926C47.7276 76.619 65.3209 90.9179 73.9601 85.93C82.5993 80.9422 79.0128 58.5564 65.9494 35.93C52.886 13.3036 35.2927 -0.995279 26.6535 3.99255C18.0143 8.98039 21.6008 31.3662 34.6642 53.9926Z" stroke="#61DAFB" stroke-width="5"/>
<path d="M34.6642 35.93C21.6009 58.5564 18.0143 80.9422 26.6535 85.93C35.2927 90.9178 52.8861 76.6189 65.9494 53.9925C79.0128 31.3661 82.5993 8.98041 73.9601 3.99255C65.321 -0.99528 47.7276 13.3036 34.6642 35.93Z" stroke="#61DAFB" stroke-width="5"/>
</svg>
