<svg width="100" height="100" viewBox="0 0 100 100" fill="none" xmlns="http://www.w3.org/2000/svg">
<path d="M96.128 99.9766H3.87198C1.74575 99.9766 0 98.2309 0 96.1047V3.871C0 1.74477 1.74575 -0.000976562 3.87198 -0.000976562H96.128C98.2542 -0.000976562 100 1.74477 100 3.871V96.127C99.9776 98.2533 98.2542 99.9766 96.128 99.9766Z" fill="#4D4D4E"/>
<path d="M23.0527 30.1914L75.3804 13.5844C75.3804 13.5844 79.0957 11.6372 78.2004 15.2406L78.3347 31.2433C78.3347 31.2433 78.9838 33.5933 75.7609 34.1753L54.4986 40.8225L23.0527 30.1914Z" fill="#F89820"/>
<path d="M23.053 30.1914C23.053 30.1914 20.9939 30.6838 21.5982 34.1977L21.4863 49.6184C21.4863 49.6184 21.3072 51.5656 25.0001 52.349L76.8578 69.0455C76.8578 69.0455 78.6035 69.7393 78.4021 67.5907L78.4245 50.4018C78.4245 50.4018 78.9169 48.6337 75.694 47.4698L54.4988 40.8226L23.053 30.1914Z" fill="#F89820"/>
<path d="M45.9042 59.0635L23.8361 65.8003C23.8361 65.8003 21.1727 65.8898 21.4861 70.8808C21.7994 75.8719 21.4637 85.9211 21.4637 85.9211C21.4637 85.9211 21.6875 87.7788 24.239 86.7045L76.5667 70.008C76.5667 70.008 78.4243 69.538 76.8576 69.0232C75.2909 68.5308 45.9042 59.0635 45.9042 59.0635Z" fill="url(#paint0_linear_790_7063)"/>
<defs>
<linearGradient id="paint0_linear_790_7063" x1="24.525" y1="76.7757" x2="77.4577" y2="58.4614" gradientUnits="userSpaceOnUse">
<stop offset="0.233" stop-color="#F89822"/>
<stop offset="1" stop-color="#C27818"/>
</linearGradient>
</defs>
</svg>
