<svg width="99" height="100" viewBox="0 0 99 100" fill="none" xmlns="http://www.w3.org/2000/svg">
<path d="M97.848 14.8011L51.7313 98.6948C50.779 100.427 48.3328 100.437 47.3664 98.7135L0.335428 14.8089C-0.71763 12.9308 0.86119 10.6555 2.9535 11.0363L49.1197 19.4308C49.4142 19.4843 49.7158 19.4838 50.0102 19.4292L95.2107 11.048C97.2961 10.6614 98.8822 12.9191 97.848 14.8011Z" fill="url(#paint0_linear_790_7160)"/>
<path d="M71.111 0.0246207L36.9836 6.8278C36.7109 6.88215 36.4637 7.02714 36.2809 7.23999C36.098 7.45285 35.9899 7.72148 35.9735 8.00367L33.8743 44.074C33.8627 44.2718 33.8967 44.4697 33.9734 44.6518C34.0502 44.834 34.1676 44.9954 34.3164 45.1233C34.4651 45.2513 34.6412 45.3421 34.8305 45.3888C35.0199 45.4354 35.2173 45.4364 35.4071 45.3919L44.9088 43.1611C45.7977 42.9524 46.6011 43.749 46.4182 44.6584L43.5953 58.7216C43.4055 59.6681 44.2787 60.4772 45.1872 60.1964L51.0561 58.3826C51.9657 58.1017 52.8401 58.9132 52.6476 59.8604L48.1615 81.9503C47.8808 83.3321 49.6874 84.0855 50.4406 82.901L50.9441 82.1098L78.7532 25.6495C79.2191 24.7042 78.4157 23.6262 77.3956 23.8268L67.6147 25.747C66.6959 25.9273 65.914 25.0565 66.1732 24.142L72.5568 1.62925C72.8164 0.712429 72.0314 -0.158743 71.1114 0.0246207H71.111Z" fill="url(#paint1_linear_790_7160)"/>
<defs>
<linearGradient id="paint0_linear_790_7160" x1="-0.812871" y1="17.8049" x2="50.0375" y2="85.6877" gradientUnits="userSpaceOnUse">
<stop stop-color="#41D1FF"/>
<stop offset="1" stop-color="#BD34FE"/>
</linearGradient>
<linearGradient id="paint1_linear_790_7160" x1="53.3985" y1="1.87182" x2="63.9804" y2="73.2241" gradientUnits="userSpaceOnUse">
<stop stop-color="#FFEA83"/>
<stop offset="0.083" stop-color="#FFDD35"/>
<stop offset="1" stop-color="#FFA800"/>
</linearGradient>
</defs>
</svg>
