<svg width="100" height="99" viewBox="0 0 100 99" fill="none" xmlns="http://www.w3.org/2000/svg">
<path d="M0.951417 34.4982C0.951417 34.4982 -1.48421 32.7425 1.43854 30.3982L8.24814 24.3091C8.24814 24.3091 10.1966 22.2591 12.2568 24.0453L75.0959 71.6212V94.4349C75.0959 94.4349 75.0655 98.0173 70.4682 97.6215L0.951417 34.4982Z" fill="#2489CA"/>
<path d="M17.1486 49.2031L0.951623 63.9285C0.951623 63.9285 -0.712723 65.1666 0.951623 67.379L8.47162 74.219C8.47162 74.219 10.2578 76.1371 12.8964 73.9551L30.0675 60.9347L17.1486 49.2031Z" fill="#1070B3"/>
<path d="M45.5844 49.3251L75.2889 26.6433L75.0961 3.95125C75.0961 3.95125 73.8276 -1.0012 69.5957 1.57651L30.0674 37.5529L45.5844 49.3251Z" fill="#0877B9"/>
<path d="M70.4684 97.6524C72.1937 99.418 74.2843 98.8397 74.2843 98.8397L97.4328 87.4329C100.396 85.4133 99.9801 82.9067 99.9801 82.9067V14.7902C99.9801 11.7964 96.9153 10.7613 96.9153 10.7613L76.8518 1.08978C72.4677 -1.61985 69.5957 1.57691 69.5957 1.57691C69.5957 1.57691 73.2897 -1.08198 75.0961 3.95165V94.0192C75.0961 94.6383 74.9642 95.2472 74.7003 95.7952C74.1726 96.8608 73.0259 97.8553 70.2756 97.4392L70.4684 97.6524Z" fill="#3C99D4"/>
</svg>
